S1M60T50L16O5ED+ED+EO4BO5DCO4A8RCEAB8REG+BO5C8RO4EO5ED+ED+EO4BO5DCO4A8RCEAB8RDO5CO4BA8R8
S1M60T50L16O3R8R4.AO4EAR8.O3EO4EG+R8.O3AO4EAR8.R4.O3AO4EAR8.O3EO4EG+R8.O3AO4EA
S1M60T50L16R8R4.R4.R4.R4.R4.R4.R4.R4.
O5ED+ED+EO4BO5DCO4A8RCEAB8REG+BO5C8RO4EO5ED+ED+EO4BO5DCO4A8RCEAB8RDO5CO4BA8RBO5CD
O3R8.R4.AO4EAR8.O3EO4EG+R8.O3AO4EAR8.R4.O3AO4EAR8.O3EO4EG+R8.O3AO4EAR8.
R4.R4.R4.R4.R4.R4.R4.R4.
E8.O4GO5FED8.O4FO5EDC8.O4EO5DCO4B8REO5EO4EO5EO3EO5ED+ED+ED+ED+ED+ED+EO4BO5DCO4A8RCEAB8REG+BO5C8RO4EO5ED+ED+EO4BO5DCO4A8RCEAB8RDO5CO4BA8RO5CCC
O4CEO5CR8.O3GO4GBR8.O3AO4EAR8.O3EO4EO5ER8.R4.R4.R4.O3AO4EAR8.O3EO4EG+R8.O3AO4EAR8.R4.O3AO4EAR8.O3EO4EG+R8.O3AO4EAEFB-
R4.R4.R4.R4.R4.R4.R4.R4.R4.R4.R4.R4.R4.R8.O3B-AG
O5C4F.E32E8D8B-.A32AGFEDCO4B-8A8A32G32A32B-32
O4A4O5CO4AFB-O5DO4B-O5DO4B-FEDEFEFCCO3AR8
O3FO4AFAR8R4.R4.R4.
O5A4DD+E8.EFO4AO5C4D.O4B32L32O5CGO4GO5GO4AO5GO4BO5GCGDGEGO6CO5BAGFEDGFD
O4A4R8EAO5CO4ADFO3GO4EO3GO4EO3GO4FE8RFEDGRF8G8
O4FAFAR8R4.R4.C8R4CRR4
CGO4GO5GO4AO5GO4BO5GCGDGEGO6CO5BAGFEDGFDEFED+EO4BO5ED+EO4BO5ED+E8.L16O4BO5ED+E8.O4BO5ED+ED+ED+ED+
E8RFEDGRF8G8G+8R4R4.R4.R4.
O4C8R4CRR4R4.R4.R4.R4.
ED+EO4BO5DCO4A8RCEAB8REG+BO5C8RO4EO5ED+ED+EO4BO5DCO4A8RCEAB8RDO5CO4B
R4.O3AO4EAR8.O3EO4EG+R8.O3AO4EAR8.R4.O3AO4EAR8.O3EO4EG+R8.
R4.R4.R4.R4.R4.R4.R4.
O4A8RBO5CDE8.O4GO5FED8.O4FO5EDC8.O4EO5DCO4B8REO5EO4EO5EO3EO5ED+ED+ED+ED+ED+
O3AO4EAR8.CGO5CR8.O3GO4GBR8.O3AO4EAR8.O3EO4EO5ER8.R4.R4.
R4.R4.R4.R4.R4.R4.R4.
ED+EO4BO5DCO4A8RCEAB8REG+BO5C8RO4EO5ED+ED+EO4BO5DCO4A8RCEAB8RDO5CO4B
R4.O3AO4EAR8.O3EO4EG+R8.O3AO4EAR8.R4.O3AO4EAR8.O3EO4EG+R8.
R4.R4.R4.R4.R4.R4.R4.
O4A8R4O5C+4.D4EFF4F8E4.D4CO4BA4A8A8O5C8O4B8A4.O5C+4.D4EFF4F8F4.E-4DCO4B-4A8G+4G+8A4R8B8R4
R4.O4B-4.A4O5C+DD4D8C4.O4F4EDF+4C8C8E8G+8C4.B-4.A4O5C+DD4D8D4.O4G4FE-D4F8F4F8E4R8G+8R4
O3AAAAAAAAAAAAAAAAAAAAAAAAAAAAAAAAAAAAAAAAAAEEEEEEAAAAAAAAAAAAAAAAAAAAAAAAB-B-B-B-B-B-B-B-B-B-B-B-B-B-B-B-B-B-BBBBBBO4C4R8O3E8R4
L24O3AO4CEAO5CEDCO4BAO5CEAO6CEDCO5BO4AO5CEAO6CEDCO5BB-AG+GF+FED+DC+CO4BB-AG+GF+FL16
O3A8R8O4E8E8R4E8R4R4.R4.
R4O3A8A8R8A8A8R8A8A8R4R4.
O5ED+EO4BO5DCO4A8RCEAB8REG+BO5C8RO4EO5ED+ED+EO4BO5DCO4A8RCEAB8RDO5CO4BA8R8
O3R4.AO4EAR8.O3EO4EG+R8.O3AO4EAR8.R4.O3AO4EAR8.O3EO4EG+R8.O3AO4EA
R4.R4.R4.R4.R4.R4.R4.R4.
O5ED+ED+EO4BO5DCO4A8RCEAB8REG+BO5C8RO4EO5ED+ED+EO4BO5DCO4A8RCEAB8RDO5CO4BA8
O3R8.R4.AO4EAR8.O3EO4EG+R8.O3AO4EAR8.R4.O3AO4EAR8.O3EO4EG+R8.O3A8
R4.R4.R4.R4.R4.R4.R4.R4.
