T105S1M60L16O5R8GGG8G8R8DEGF+EDF+8R8F+4F+8EF+GF+EF+E8R8D4D8DDEDCO4BO5D8R8C4C8
T105S1M60L16O5R8DDD8D8R2R8CCR8C8R2R8O4BBR8B8R2R8F+F+R8F+8R2R8GGR8D8R8DDD8D8
T105S1M60L16O3G2D2A8O4DDR8D8O3D2G8O4GGR8G8O3D2A8O4DDR8D8O3D2G8O4DDR8O3B8D8BBB8B8
CCDCO4BAB8R8G4G2G8O5GGG8G8R8DEGF+EDF+8R8F+4F+8EF+GF+EF+E8R8D4D8DDEDCO4B
O5R8DDD8D8R2R8CCR8C8R2R8O4BBR8B8R2R8F+F+R8F+8R2R8DDD8D8D4R4R8O5CCR8C8
O3G2D2A8O4DDR8D8O3D2G8O4GGR8G8O3D2A8O4DDR8D8O3D2G8BBB8B8B4R4O4C8GGR8G8
O5D8R8C4C8CCDCO4BAG2G4G8.GO5E8R8E4E8F+GAGF+EE8R8D4D8C+DC+DF+ED8R8C4C8
R2R8O4BBR8B8R2R8AAR8A8R2R8DDD8D8
C4R4O3G8O4GGR8G8O3G4G8R8D8O3F+F+R8F+8O3D2G8BBB8B8
O4BO5CO4BO5CEDO4G2


G4.O5G8E8G8E8G8E8G8AGF+EEDDDEDDDEDDDEDCO4BO5DCCCDCCCDCCCDCO4BAGGABO5CDEF+G8R8G8G8
R8D8R4R8O5C8R8C8R8C8R4O4B2B2F+2F+2R2R8O5D4D8
G8B8R4O4C4C4C4C8R8O3G2G2D2D2G4O4D8R8R8O4B4B8
E8G8E8G8E8G8AGF+EEDDDEDDDEDDDEDCO4BO5DCCCDCCCDCCCDCO4BAGGABO5CDEF+GGABO6CDEF+G8R8O5B8R8G8
R8O5C8R8C8R8C8R4O4B2B2F+2F+2R2R2O4B8R8O5D8R8D8
O4C4C4C4C8R8O3G2G2D2D2G8R8O4D8R8O3G8R8D8R8O4G8R8D8R8O3G8
