T180S1M20L16O4BAG+AO5C8R8DCO4BO5CE8R8FED+EBAG+ABAG+AO6C4O5A8O6C8O5G32A32B16A8G8A8G32A32B16A8G8A8G32A32B16A8G8F+8E4
T180S1M20L8O4R4REEEREEEREREREEERO5F+EF+RF+GF+RF+ED+R4
T180S1M20L8R4O3AO4CCCO3AO4CCCO3AO4CO3AO4CO3AO4CCCO3EBBBEBBBEBBBE4
O4BAG+AO5C8R8DCO4BO5CE8R8FED+EBAG+ABAG+AO6C4O5A8O6C8O5B8A8G8A8B8A8G8A8B8A8G8F+8E4
O4R4REEEREEEREREREEERO5F+EF+RF+GF+RF+ED+R4
R4O3AO4CCCO3AO4CCCO3AO4CO3AO4CO3AO4CCCO3EBBBEBBBEBBBE4
E8F8G8G8AGFED4E8F8G8G8AGFED4C8D8E8E8FEDCO4B4O5C8D8E8E8FEDCO4B4BAG+AO5C8R8DCO4BO5CE8R8FED+EBAG+ABAG+AO6C4O5A8B8
O4ABO5EER4O4BGO5CDEER4O4B4ABO5CCR4O4G+EABO5CCR4O4G+4R4REEEREEERERERB+B+B+
R4O3CO4CO3EO4EO3G4R4O3CO4CO3EO4EO3G4R4O3AACO4CO3E4R4AACO4CO3E4R4AO4CCCO3AO4CCCO3AO4CO3AO4CO3FAAA
O6L8CO5BAG+AEFDC4O4B.A32B32A4
RO4ERO3BRARBAAG+G+A4
O3EO4AO3DO4FO3CO4EO3BO4FEEEEO3A4
O5ABO6C+4O5ABO6C+O5BAG+F+G+ABG+EABO6C+4O5ABO6C+O5BAG+F+BG+EA4
O4ABO5C+4O4ABO5C+O4BAG+F+G+ABG+EABO5C+4O4ABO5C+O4BAG+F+BG+EA4
R4O3AAAAAAAADDD+D+EEEEAAAAAAAADDEEA4
O5ABO6C+4O5ABO6C+O5BAG+F+G+ABG+EABO6C+4O5ABO6C+O5BAG+F+BG+EA4
O4ABO5C+4O4ABO5C+O4BAG+F+G+ABG+EABO5C+4O4ABO5C+O4BAG+F+BG+EA4
R4O3AAAAAAAADDD+D+EEEEAAAAAAAADDEEA4
L16O6C+DC+O5BABAG+F+AG+F+E+F+G+E+C+D+E+C+F+E+F+G+AG+ABO6C+O5B+O6C+O5B+O6C+DC+O5BABAG+F+AG+F+EF+G+EC+D+EC+D+EF+D+O4B+O5C+D+O4B+O5C+4
L8R4RO4C+C+C+RC+C+C+RC+C+C+RC+C+C+RC+C+C+REEERF+F+F+E4
L8R4O3F+AAAG+BBBF+AAAE+G+G+G+F+AAAG+O4C+C+C+O3G+O4D+D+D+C+4
O6C+DC+O5BABAG+F+AG+F+E+F+G+E+C+D+E+C+F+E+F+G+AG+ABO6C+O5B+O6C+O5B+O6C+DC+O5BABAG+F+AG+F+EF+G+EC+D+EC+D+EF+D+O4B+O5C+D+O4B+O5C+4
R4RO4C+C+C+RC+C+C+RC+C+C+RC+C+C+RC+C+C+REEERF+F+F+E4
R4O3F+AAAG+BBBF+AAAE+G+G+G+F+AAAG+O4C+C+C+O3G+O4D+D+D+C+4
EDC+O4BABO5C+DEF+G+AAG+F+EEDC+O4BABO5C+DEF+G+AA+8B8EDC+O4BABO5C+DEF+G+AAG+F+EEDC+O4BO5C+EO4AO5C+O4BO5DO4G+BA4
R4RO4EEEREREREEERDDDREEERERER2R4
R4O3AO4C+C+C+O3BO4DO3G+O4DO3AO4C+C+C+O3EG+G+G+AO4C+C+C+O3BO4DO3G+O4DO3AF+DEAA
O6C+DC+O5BABAG+F+AG+F+E+F+G+E+C+D+E+C+F+E+F+G+AG+ABO6C+O5B+O6C+O5B+O6C+O5B+O6C+O5A+
R4RO4C+C+C+RC+C+C+RC+C+C+RC+C+C+
R4O3F+AAAG+BBBF+AAAC+G+GF+
O6DC+DC+DC+DC+DC+O5BAG+ABG+ABO6C+O5F+E+F+G+E+F+4
RO3BBBRBBBRARBA4
O3DF+F+F+DG+G+G+C+F+C+G+F+4
L8O5ABO6C+4O5ABO6C+O5BAG+F+G+ABG+EABO6C+4O5ABO6C+O5BAG+F+BG+EA4
O4ABO5C+4O4ABO5C+O4BAG+F+G+ABG+EABO5C+4O4ABO5C+O4BAG+F+BG+EA4
R4O3AAAAAAAADDD+D+EEEEAAAAAAAADDEEA4
O5ABO6C+4O5ABO6C+O5BAG+F+G+ABG+EABO6C+4O5ABO6C+O5BAG+F+BG+EA4
O4ABO5C+4O4ABO5C+O4BAG+F+G+ABG+EABO5C+4O4ABO5C+O4BAG+F+BG+EA4
R4O3AAAAAAAADDD+D+EEEEAAAAAAAADDEEA4
L16O4BAG+AO5C8R8DCO4BO5CE8R8FED+EBAG+ABAG+AO6C4O5A8O6C8O5B8A8G8A8B8A8G8A8B8A8G8F+8E4
O4R4REEEREEEREREREEERO5F+EF+RF+GF+RF+ED+R4
R4O3AO4CCCO3AO4CCCO3AO4CO3AO4CO3AO4CCCO3EBBBEBBBEBBBE4
E8F8G8G8AGFED4E8F8G8G8AGFED4C8D8E8E8FEDCO4B4O5C8D8E8E8FEDCO4B4BAG+AO5C8R8DCO4BO5CE8R8FED+EBAG+ABAG+AO6C4O5A8B8
O4ABO5EER4O4BGO5CDEER4O4B4ABO5CCR4O4G+EABO5CCR4O4G+4R4REEEREEERERERB+B+B+
R4O3CO4CO3EO4EO3G4R4O4CO4CO3EO4EO3G4R4O3AACO4CO3E4R4AACO4CO3E4R4AO4CCCO3AO4CCCO3AO4CO3AO4CO3FAAA
O6L8CO5BAG+AEFDC4O4B.A32B32A4
RO4ERO3BRARBAAG+G+A4
O3EO4AO3DO4FO3CO4EO3BO4FEEEEO3A4
