O3G+12O4C+12E12O3G+12O4C+12E12O3G+12O4C+12E12O3G+12O4C+12E12
O3C+1
O2C+1
O3G+12O4C+12E12O3G+12O4C+12E12O3G+12O4C+12E12O3G+12O4C+12E12
O2B1
O1B1
O3A12O4C+12E12O3A12O4C+12E12O3A12O4D12F+12O3A12O4D12F+12
O2A2F+2
O2A2F+2
O3G+12B+12O4F+12O3G+12O4C+12E12O3G+12O4C+12D+12O3F+12B+12O4D+12R64
O2G+2R64G+2
O1G+2R64G+2
O3E12G+12O4C+12O3G+12O4C+12E12O3G+12O4C+12E12G+8.R64G+16
O3C+2.G+12O4C+12E12R64
O1C+1R64
R64O4G+2.R64G+8.R64G+16
R64O3G+12O4D+12F+12O3G+12O4D+12F+12O3G+12O4D+12F+12R64O3G+12O4D+12F+12R64
R64O2B+1B+32
R64G+2A2
R64O3G+12O4C+12E12O3G+12O4C+12E12O3A12O4C+12F+12O3A12O4C+12F+12
R64O3C+2O2F+2
O4G+2R64F+4B4
O3G+12B12O4E12O3G+12B12O4E12R64O3A12B12O4D+12O3A12B12O4D+12
O2B2R64B2
O4E4R4R2
O3G+12B12O4E12O3G+12B12O4E12O3G+12B12O4E12O3G+12B12O4E12
O3E1
R2R4O4G8.R64G16
O3G12B12O4E12O3G12B12O4E12O3G12B12O4E12O3G12B12O4E12R64
R64O3E1
R64O4G2.R64G8.R64G16
R64O3G12B12O4F12O3G12B12O4F12O3G12B12O4F12R64O3G12B12O4F12R64
R64O3D1D32
R64O4G2.F+4
R64O3G12O4C12E12O3G12O4C12E12O3G12O4C+12E12O3F+12O4C+12E12
R64O3C4O2B4A+2
R64F+2G4E4
R64O3F+12B12O4D12O3F+12B12O4D12O3G12B12O4C+12O3E12B12O4C+12
R64O2B2E4G4
O4F+1F64
O3F+12B12O4D12O3F+12B12O4D12R64O3F+12A+12O4C+12O3F+12A+12O4C+12
O2F+2R64F+2
O3B4R2O4B4
O3B12O4D12F+12B12O4D12F+12B12O4D+12F+12B12O4D+12F+12
O2B1
O5C2.O4A+4
O3B12E12G12B12E12G12B12E12G12B12E12G12
O2B4O3E4G4E4
O4B2.R64B4
O3B12D+12F+12B12D+12F+12B12D+12F+12B12D+12F+12


